<svg width="31" height="29" viewBox="0 0 31 29" fill="none" xmlns="http://www.w3.org/2000/svg">
<path d="M16.0575 28.9971C13.6724 28.9971 11.4791 28.4486 9.47733 27.3514C7.4756 26.2552 5.83589 24.802 4.55819 22.9919V25.164H2.0028V18.7755H8.39128V21.3309H6.53862C7.56078 22.8642 8.90236 24.0993 10.5634 25.0363C12.2244 25.9732 14.0557 26.4417 16.0575 26.4417C17.6546 26.4417 19.1508 26.1385 20.546 25.532C21.9404 24.9247 23.1542 24.1044 24.1875 23.0712C25.2198 22.0388 26.0397 20.825 26.647 19.4297C27.2535 18.0353 27.5568 16.5396 27.5568 14.9424H30.1121C30.1121 16.8803 29.745 18.701 29.0108 20.4046C28.2757 22.1082 27.2693 23.5988 25.9916 24.8765C24.7139 26.1542 23.2232 27.1602 21.5196 27.8945C19.816 28.6296 17.9953 28.9971 16.0575 28.9971ZM10.1162 5.13612L9.03013 2.77238C10.1162 2.15482 11.2184 1.68633 12.3368 1.36691C13.4544 1.04748 14.6946 0.887772 16.0575 0.887772C18.4425 0.887772 20.6359 1.4359 22.6376 2.53217C24.6393 3.62929 26.2791 5.08288 27.5568 6.89295V4.72087H30.1121V11.1094H23.7237V8.55396H25.5763C24.5542 7.02072 23.2126 5.78561 21.5516 4.84863C19.8906 3.91166 18.0592 3.44317 16.0575 3.44317C14.9288 3.44317 13.8803 3.59734 12.9118 3.90569C11.9424 4.2149 11.0106 4.62504 10.1162 5.13612ZM5.83589 14.9424L4.23877 11.4288L0.725098 9.83166L4.23877 8.23453L5.83589 4.72087L7.43301 8.23453L10.9467 9.83166L7.43301 11.4288L5.83589 14.9424ZM10.6911 20.0532L15.0353 8.55396H17.0796L21.4238 20.0532H19.4434L18.4212 17.1145H13.7576L12.7355 20.0532H10.6911ZM14.3326 15.4535H17.7824L16.1214 10.6622H15.9936L14.3326 15.4535Z" fill="#1C1B1F"/>
</svg>
