<svg width="26" height="26" viewBox="0 0 26 26" fill="none" xmlns="http://www.w3.org/2000/svg">
<path d="M1.9543 25.7194L0.165527 23.9307L2.97646 21.1197L0.165527 20.3531L0.836319 17.8935L3.61531 18.6601L2.88064 15.8492L5.3402 15.1784L6.10682 17.9894L10.4829 13.6132L7.672 12.8466L8.34279 10.3871L11.1218 11.1217L10.3871 8.34273L12.8467 7.67194L13.6133 10.4829L17.9894 6.10676L15.1785 5.34014L15.8493 2.88057L18.6602 3.61525L17.8936 0.836258L20.3532 0.165466L21.1198 2.9764L23.9307 0.165466L25.7195 1.95424L22.9086 4.76518L25.7195 5.5318L25.0487 7.99137L22.2697 7.22475L23.0044 10.0357L20.5448 10.7065L19.7782 7.89554L15.4021 12.2717L18.213 13.0383L17.5422 15.4978L14.7632 14.7632L15.4979 17.5422L13.0383 18.213L12.2717 15.402L7.8956 19.7781L10.7065 20.5448L10.0357 23.0043L7.22481 22.2696L7.99143 25.0486L5.53186 25.7194L4.76524 22.9085L1.9543 25.7194Z" fill="#1C1B1F"/>
</svg>
