<svg width="33" height="33" viewBox="0 0 33 33" fill="none" xmlns="http://www.w3.org/2000/svg">
<path d="M22.5323 15.3453C23.1978 15.3453 23.7632 15.1122 24.2285 14.6458C24.6948 14.1805 24.928 13.6151 24.928 12.9496C24.928 12.2842 24.6948 11.7188 24.2285 11.2535C23.7632 10.7871 23.1978 10.554 22.5323 10.554C21.8669 10.554 21.3015 10.7871 20.8362 11.2535C20.3698 11.7188 20.1367 12.2842 20.1367 12.9496C20.1367 13.6151 20.3698 14.1805 20.8362 14.6458C21.3015 15.1122 21.8669 15.3453 22.5323 15.3453ZM11.3525 15.3453C12.018 15.3453 12.5833 15.1122 13.0486 14.6458C13.515 14.1805 13.7482 13.6151 13.7482 12.9496C13.7482 12.2842 13.515 11.7188 13.0486 11.2535C12.5833 10.7871 12.018 10.554 11.3525 10.554C10.687 10.554 10.1216 10.7871 9.65634 11.2535C9.18998 11.7188 8.9568 12.2842 8.9568 12.9496C8.9568 13.6151 9.18998 14.1805 9.65634 14.6458C10.1216 15.1122 10.687 15.3453 11.3525 15.3453ZM16.9424 25.7266C18.7525 25.7266 20.3965 25.2145 21.8743 24.1902C23.3511 23.1648 24.4223 21.8137 25.0877 20.1367H8.79709C9.46256 21.8137 10.5342 23.1648 12.0121 24.1902C13.4889 25.2145 15.1323 25.7266 16.9424 25.7266ZM16.9424 32.9137C14.7331 32.9137 12.6568 32.4942 10.7136 31.6551C8.77047 30.8172 7.08018 29.6795 5.64277 28.2421C4.20536 26.8047 3.06768 25.1144 2.22972 23.1712C1.3907 21.2281 0.971191 19.1518 0.971191 16.9425C0.971191 14.7331 1.3907 12.6568 2.22972 10.7137C3.06768 8.77051 4.20536 7.08022 5.64277 5.64281C7.08018 4.2054 8.77047 3.06719 10.7136 2.22816C12.6568 1.39021 14.7331 0.97123 16.9424 0.97123C19.1518 0.97123 21.228 1.39021 23.1712 2.22816C25.1144 3.06719 26.8046 4.2054 28.2421 5.64281C29.6795 7.08022 30.8172 8.77051 31.6551 10.7137C32.4941 12.6568 32.9136 14.7331 32.9136 16.9425C32.9136 19.1518 32.4941 21.2281 31.6551 23.1712C30.8172 25.1144 29.6795 26.8047 28.2421 28.2421C26.8046 29.6795 25.1144 30.8172 23.1712 31.6551C21.228 32.4942 19.1518 32.9137 16.9424 32.9137ZM16.9424 29.7194C20.5093 29.7194 23.5305 28.4817 26.0061 26.0061C28.4816 23.5306 29.7194 20.5094 29.7194 16.9425C29.7194 13.3755 28.4816 10.3543 26.0061 7.87878C23.5305 5.40324 20.5093 4.16547 16.9424 4.16547C13.3755 4.16547 10.3543 5.40324 7.87875 7.87878C5.40321 10.3543 4.16544 13.3755 4.16544 16.9425C4.16544 20.5094 5.40321 23.5306 7.87875 26.0061C10.3543 28.4817 13.3755 29.7194 16.9424 29.7194Z" fill="#1C1B1F"/>
</svg>
